<?xml version="1.0" encoding="utf-8" ?><svg xmlns="http://www.w3.org/2000/svg" xmlns:xlink="http://www.w3.org/1999/xlink" width="520" height="405" viewBox="0 0 520 405"><clipPath id="cl_3"><rect x="0.00012207031" width="520" height="405"/></clipPath><g clip-path="url(#cl_3)"><defs><linearGradient id="gradient_0" gradientUnits="userSpaceOnUse" x1="742.99927" y1="461.47836" x2="974.51917" y2="565.10571"><stop offset="0" stop-color="#3AD4C4"/><stop offset="1" stop-color="#0FAFFF"/></linearGradient></defs><path fill="url(#gradient_0)" transform="translate(-505 -252)" d="M944.413 364.2C973.113 374.778 998.088 387.262 1011.11 416.63C1048.73 501.492 936.347 587.724 873.298 616.332C871.218 617.274 869.126 618.189 867.022 619.076L863.218 616.816C888.358 603.139 919.819 582.506 937.489 559.519C927.454 565.261 917.861 573.156 907.802 579.123C847.581 614.845 774.787 631.696 705.014 625.588C693.186 624.552 678.847 625.687 671.48 615.156C667.432 610.399 664.448 605.296 661.625 599.764C668.591 596.77 675.916 593.785 682.524 590.122C692.873 590.298 703.217 590.68 713.551 591.269C729.774 591.191 745.979 591.137 762.146 589.587C834.528 582.645 909.926 555.484 961.805 503.082C967.205 497.598 972.152 491.686 976.598 485.402C979.281 481.578 987.813 467.239 990.463 465.782C1011.56 454.184 1024.08 450.687 993.867 433.168C990.707 426.319 988.285 418.807 985.288 411.775C975.763 389.422 963.054 378.643 944.413 364.2Z"/><path fill="#3CD1BE" transform="translate(-505 -252)" d="M682.524 590.122C692.873 590.298 703.217 590.68 713.551 591.269C708.295 593.293 698.697 591.175 692.627 592.426C693.091 595.202 694.431 597.97 694.77 599.437C695.384 602.088 690.908 610.881 689.588 613.56C682.382 618.44 680.213 616.974 672.325 614.129L671.48 615.156C667.432 610.399 664.448 605.296 661.625 599.764C668.591 596.77 675.916 593.785 682.524 590.122Z"/><defs><linearGradient id="gradient_1" gradientUnits="userSpaceOnUse" x1="849.9693" y1="391.14453" x2="929.14191" y2="497.38519"><stop offset="0" stop-color="#2BCAD7"/><stop offset="1" stop-color="#0EB0FF"/></linearGradient></defs><path fill="url(#gradient_1)" transform="translate(-505 -252)" d="M873.038 372.921C878.961 374.071 881.682 376.068 883.194 382.072C886.041 393.381 887.666 405.35 889.651 416.837C892.978 435.466 896.415 454.074 899.962 472.661C902.924 455.439 907.33 438.56 911.231 421.474C912.051 416.748 917.108 404.359 923.606 407.224C929.416 409.785 932.274 421.467 934.232 427.045C936.926 434.719 939.489 442.142 942.493 449.619C951.078 429.174 952.546 435.98 970.168 439.951C975.834 441.227 998.157 437.129 994.133 450.371C991.477 459.115 967.792 453.51 960.565 455.464C952.12 457.747 948.805 477.268 937.936 473.338C931.516 470.029 926.433 455.087 923.88 448.171C920.029 469.549 913.504 491.492 909.029 512.831C908.621 514.776 906.942 517.175 905.742 518.724C904.607 519.144 903.444 519.561 902.251 519.781C899.512 520.288 895.749 520.302 893.474 518.504C886.067 512.649 876.846 456.146 875.171 444.072C873.937 450.873 871.274 499.759 855.504 490.84C845.554 485.213 837.769 453.993 833.459 441.61C823.152 463.558 810.313 458.811 788.326 459.705C791.787 457.65 799.562 454.157 803.417 452.293C819.015 446.106 819.754 431.779 826.157 420.134C843.8 388.046 853.321 448.38 855.789 458.225C857.066 438.341 862.437 398.352 866.886 378.142C867.492 375.39 870.521 373.941 873.038 372.921Z"/><defs><linearGradient id="gradient_2" gradientUnits="userSpaceOnUse" x1="513.16248" y1="476.35144" x2="653.91449" y2="603.07324"><stop offset="0" stop-color="#7AE072"/><stop offset="1" stop-color="#3ED3B7"/></linearGradient></defs><path fill="url(#gradient_2)" transform="translate(-505 -252)" d="M626.16 623.777C617.746 620.365 607.213 613.469 599.358 608.799C551.128 580.119 496.954 520.432 522.755 459.251C527.972 504.424 538.834 527.638 577.42 553.704C568.341 541.108 560.846 529.62 556.822 514.459C555.443 509.265 552.768 499.662 553.969 494.649C554.761 495.406 560.801 512.285 562.892 516.241C588.375 564.445 632.504 568.67 682.378 568.033C681.846 574.878 675.138 577.102 674.943 582.228C676.992 582.595 677.786 582.726 679.856 582.776C669.88 586.543 654.974 590.988 644.433 593.318C645.413 595.558 646.631 598.175 647.515 600.414C653.185 612.239 661.823 632.336 668.742 642.518C655.082 637.492 638.835 631.107 626.16 623.777Z"/><path fill="#3CD1BE" transform="translate(-505 -252)" d="M626.16 623.777C628.216 619.877 636.759 620.579 640.992 617.681C647.847 612.989 643.501 603.773 644.866 598.887L647.515 600.414C653.185 612.239 661.823 632.336 668.742 642.518C655.082 637.492 638.835 631.107 626.16 623.777Z"/><defs><linearGradient id="gradient_3" gradientUnits="userSpaceOnUse" x1="800.42627" y1="248.81514" x2="937.36304" y2="374.46954"><stop offset="0" stop-color="#47DAAD"/><stop offset="1" stop-color="#1EC2EC"/></linearGradient></defs><path fill="url(#gradient_3)" transform="translate(-505 -252)" d="M740.419 266.39C783.993 256.168 858.868 267.697 897.87 290.9C894.106 280.209 890.637 273.128 885.359 263.064C912.019 282.355 932.496 299.187 951.834 326.578C956.992 333.884 963.793 343.587 967.574 351.633C926.183 339.039 873.034 340.452 829.885 344.857C847.679 336.433 866.147 329.515 885.094 324.173C838.171 296.787 794.855 286.893 740.098 292.602L741.243 291.037C748.081 288.439 763.009 289.884 771.697 288.899C773.911 287.133 775.041 286.633 777.507 285.403C779.918 279.038 782.254 277.068 784.793 271.551C784.136 270.514 783.486 269.473 782.841 268.427C783.745 267.416 784.51 266.665 785.475 265.734C781.518 262.634 748.498 267.723 741.199 267.638L740.419 266.39Z"/><defs><linearGradient id="gradient_4" gradientUnits="userSpaceOnUse" x1="624.32391" y1="399.62515" x2="725.25366" y2="484.81302"><stop offset="0" stop-color="#77E374"/><stop offset="1" stop-color="#34D2C3"/></linearGradient></defs><path fill="url(#gradient_4)" transform="translate(-505 -252)" d="M659.412 389.807C658.676 377.374 660.221 361.836 659.185 349.903C657.798 333.925 677.678 334.963 682.541 340.544C684.223 342.655 684.546 342.997 684.641 346.21C685.023 359.1 684.89 372.236 684.892 385.126L684.878 456.391L684.879 508.799C684.878 513.753 686.144 536.033 682.734 539.113C678.439 542.991 665.451 543.097 660.744 538.553C658.082 533.797 659.363 522.779 659.368 516.982L659.284 479.833C659.276 450.639 658.654 418.802 659.412 389.807Z"/><path fill="#6EDD81" transform="translate(-505 -252)" d="M659.412 389.807C658.676 377.374 660.221 361.836 659.185 349.903C657.798 333.925 677.678 334.963 682.541 340.544L681.345 341.678C678.49 340.291 678.261 339.568 675.557 340.043C672.823 342.396 661.77 374.993 661.01 381.273C660.71 383.756 661.572 391.993 660.535 394.175L659.412 389.807Z"/><path fill="#6EDD81" transform="translate(-505 -252)" d="M740.419 266.39L741.199 267.638C748.498 267.723 781.518 262.634 785.475 265.734C784.51 266.665 783.745 267.416 782.841 268.427C783.486 269.473 784.136 270.514 784.793 271.551C782.254 277.068 779.918 279.038 777.507 285.403C775.041 286.633 773.911 287.133 771.697 288.899C763.009 289.884 748.081 288.439 741.243 291.037L740.098 292.602C737.405 293.316 731.79 293.88 728.832 294.348C666.087 304.287 609.697 335.6 564.359 379.853C569.625 371.002 579.318 358.879 586.258 351.228C618.64 314.845 660.316 287.97 706.813 273.486C715.819 270.733 731.022 266.843 740.419 266.39Z"/><defs><linearGradient id="gradient_5" gradientUnits="userSpaceOnUse" x1="591.34387" y1="402.84607" x2="670.34491" y2="496.23291"><stop offset="0" stop-color="#84E368"/><stop offset="1" stop-color="#45D8AB"/></linearGradient></defs><path fill="url(#gradient_5)" transform="translate(-505 -252)" d="M623.742 373.154C625.254 372.994 626.771 372.875 628.29 372.799C633.934 372.468 638.531 372.204 642.929 376.124C646.537 382.5 643.152 460.224 644.471 472.306C644.855 475.827 644.667 518.299 643.691 522.069C642.084 524.342 640.862 524.674 638.381 525.795C632.789 526.603 623.134 527.035 619.107 522.368C617.837 516.516 618.225 494.763 618.222 487.958L618.229 423.052C618.237 409.248 618.028 393.066 618.473 379.096C618.563 376.261 621.491 374.572 623.742 373.154Z"/><defs><linearGradient id="gradient_6" gradientUnits="userSpaceOnUse" x1="680.12286" y1="407.88254" x2="745.25171" y2="476.22629"><stop offset="0" stop-color="#5DDC8E"/><stop offset="1" stop-color="#35D3C7"/></linearGradient></defs><path fill="url(#gradient_6)" transform="translate(-505 -252)" d="M710.822 382.13C712.822 382.072 714.823 382.14 716.814 382.334C720.642 382.674 722.353 382.976 724.909 386.052C726.989 393.907 726.713 496.367 724.578 499.558C723.054 501.837 719.886 502.323 717.413 502.855C713.158 502.97 700.82 503.521 700.69 497.112C699.972 461.673 700.451 426.12 700.484 390.666C700.491 383.102 704.472 382.979 710.822 382.13Z"/><path fill="#6EDD81" transform="translate(-505 -252)" d="M590.726 409.147C603.023 409.275 604.168 411.965 604.046 423.358C603.852 441.469 604.597 459.867 603.907 477.965C603.561 487.028 599.836 488.784 591.369 488.49C569.311 488.593 585.36 470.407 573.665 459.169C568.897 458.48 562.967 459.499 558.082 460.085C556.777 459.451 555.184 458.807 553.948 458.137C547.735 454.775 533.416 457.011 531.186 448.244C532.751 439.966 543.514 441.074 549.719 441.139C552.204 439.575 554.657 438.407 557.274 437.094C598.968 444.852 561.641 412.677 590.726 409.147Z"/><defs><linearGradient id="gradient_7" gradientUnits="userSpaceOnUse" x1="741.23773" y1="425.08264" x2="779.37793" y2="463.87631"><stop offset="0" stop-color="#44D6AE"/><stop offset="1" stop-color="#35CEC7"/></linearGradient></defs><path fill="url(#gradient_7)" transform="translate(-505 -252)" d="M747.039 419.498C770.564 417.609 759.541 430.057 766.279 438.006C770.072 442.481 799.073 440.204 807.552 440.509C799.393 446.377 786.736 451.1 777.21 454.161C771.151 455.685 763.778 458.021 764.045 465.114C764.489 476.932 746.63 476.513 740.754 470.947C738.979 466.181 738.702 431.063 740.378 424.246C740.935 421.982 744.726 420.369 747.039 419.498Z"/><path fill="#3CD1BE" transform="translate(-505 -252)" d="M682.378 568.033C701.443 566.771 712.146 565.72 730.953 560.95C721.409 565.908 688.745 580.899 679.856 582.776C677.786 582.726 676.992 582.595 674.943 582.228C675.138 577.102 681.846 574.878 682.378 568.033Z"/><path fill="#2CD0E8" fill-opacity="0.98823529" transform="translate(-505 -252)" d="M863.218 616.816L867.022 619.076C856.699 623.864 848.152 626.545 837.246 629.767C845.934 625.513 854.592 621.195 863.218 616.816Z"/></g></svg>